<?xml version="1.0" encoding="utf-8"?>
<!-- Generator: Adobe Illustrator 19.0.0, SVG Export Plug-In . SVG Version: 6.00 Build 0)  -->
<svg version="1.1" id="Layer_1" xmlns="http://www.w3.org/2000/svg" xmlns:xlink="http://www.w3.org/1999/xlink" x="0px" y="0px"
	 viewBox="131 -131 512 512" style="enable-background:new 131 -131 512 512;" xml:space="preserve">
<g id="XMLID_2_">
	<path id="XMLID_6_" d="M533.2,69.6c0,26.1-9.3,51.2-27,73.5s-41.9,40-73.5,53.1c-30.7,13-64.2,19.5-100.5,19.5
		c-16.8,0-33.5-1.9-50.3-4.7c-23.3,16.8-50.3,28.9-79.1,36.3c-6.5,1.9-14.9,2.8-24.2,4.7h-0.9c-1.9,0-3.7-0.9-5.6-1.9
		c-1.9-1.9-2.8-3.7-3.7-5.6c0-0.9,0-0.9,0-1.9c0-0.9,0-0.9,0-1.9s0-0.9,0.9-1.9l0.9-1.9l0.9-1.9l0.9-1.9l0.9-1.9l0.9-0.9
		c0.9-0.9,2.8-3.7,6.5-7.4c3.7-3.7,5.6-6.5,7.4-8.4c1.9-1.9,3.7-4.7,6.5-8.4c2.8-3.7,5.6-7.4,7.4-11.2c1.9-3.7,3.7-8.4,5.6-13
		c-23.3-14-41.9-30.7-55.9-50.3S131,91,131,67.7c0-26.1,9.3-51.2,27-73.5s41.9-40,73.5-53.1c30.7-13,64.2-19.5,100.5-19.5
		s69.8,6.5,100.5,19.5S487.4-28.2,506-5.8C524.8,18.4,533.2,43.5,533.2,69.6z M643,143.2c0,23.3-6.5,44.7-20.5,64.2
		s-31.7,36.3-55.9,50.3c1.9,4.7,3.7,8.4,5.6,13c1.9,3.7,4.7,7.4,7.4,11.2c2.8,3.7,4.7,6.5,6.5,8.4c1.9,1.9,3.7,4.7,7.4,8.4
		c3.7,3.7,5.6,5.6,6.5,7.4l0.9,0.9c0.9,0.9,0.9,0.9,0.9,1.9c0,0,0.9,0.9,0.9,1.9c0,0.9,0.9,0.9,0.9,1.9l0.9,1.9l0.9,1.9v1.9v1.9
		c-0.9,2.8-1.9,4.7-3.7,6.5s-3.7,1.9-6.5,1.9c-9.3-0.9-17.7-2.8-24.2-4.7c-29.8-7.4-55.9-19.5-79.1-36.3
		c-16.8,2.8-33.5,4.7-50.3,4.7c-51.2,0-96.8-13-135-38.2c11.2,0.9,19.5,0.9,25.1,0.9c30.7,0,60.5-4.7,88.4-13
		c27.9-8.4,53.1-20.5,75.4-37.2c24.2-17.7,41.9-38.2,54.9-60.5c13-23.3,19.5-47.5,19.5-72.6c0-14.9-1.9-28.9-6.5-43.8
		c24.2,14,43.8,30.7,58.6,51.2C637.4,99.4,643,118.9,643,143.2z"/>
</g>
</svg>
